<?xml version="1.0" encoding="UTF-8" standalone="no"?>
<svg
   class="svg-icon"
   style="width: 1em; height: 1em;vertical-align: middle;fill: currentColor;overflow: hidden;"
   viewBox="0 0 1024 1024"
   version="1.1"
   id="svg4"
   sodipodi:docname="move-atom.svg"
   inkscape:version="1.1.2 (0a00cf5339, 2022-02-04)"
   xmlns:inkscape="http://www.inkscape.org/namespaces/inkscape"
   xmlns:sodipodi="http://sodipodi.sourceforge.net/DTD/sodipodi-0.dtd"
   xmlns="http://www.w3.org/2000/svg"
   xmlns:svg="http://www.w3.org/2000/svg">
  <defs
     id="defs8" />
  <sodipodi:namedview
     id="namedview6"
     pagecolor="#ffffff"
     bordercolor="#666666"
     borderopacity="1.0"
     inkscape:pageshadow="2"
     inkscape:pageopacity="0.0"
     inkscape:pagecheckerboard="0"
     showgrid="false"
     inkscape:zoom="0.76367188"
     inkscape:cx="215.40665"
     inkscape:cy="312.30691"
     inkscape:window-width="1860"
     inkscape:window-height="1016"
     inkscape:window-x="0"
     inkscape:window-y="0"
     inkscape:window-maximized="1"
     inkscape:current-layer="svg4" />
  <path
     d="M768 320v128H576V256h128L512 64 320 256h128v192H256V320L64 512l64 64 128 128V576h192v192H320l192 192 64-64 128-128H576V576h192v128l192-192-192-192z"
     id="path2"
     inkscape:export-filename="/var/www/html/tsugi/mod/jsmolmodels/images/move-atom.png"
     inkscape:export-xdpi="6.8571429"
     inkscape:export-ydpi="6.8571429" />
  <g
     id="g4147"
     transform="matrix(1.272505,0,0,1.2414942,-145.56702,-61.510301)"
     inkscape:export-filename="/var/www/html/tsugi/mod/jsmolmodels/images/move-atom.png"
     inkscape:export-xdpi="6.8571429"
     inkscape:export-ydpi="6.8571429">
    <path
       style="fill:#838383"
       d="m 494.89679,601.42251 c -15.27373,-2.30777 -16.92303,-2.85747 -35,-11.66503 l -18.97095,-9.24313 -15.7327,-16.00596 C 409.904,548.95371 409.1907,547.98099 399.89321,530.00748 l -9.56723,-18.49498 -3.63917,-20.88002 -3.63916,-20.88004 3.50104,-20.70241 c 3.49396,-20.66068 3.52046,-20.74132 13.14344,-40 9.6029,-19.21851 9.70715,-19.36334 25.43806,-35.34252 l 15.79565,-16.04491 19.375,-9.3759 19.375,-9.37588 19.6855,-2.63059 19.6855,-2.63059 19.83564,2.68649 19.83562,2.68647 17.97888,8.85909 c 17.83535,8.78837 18.10686,8.98586 34.01512,24.73992 l 16.03628,15.88083 9.98857,19.84722 c 9.97523,19.8207 9.99348,19.87507 13.6521,40.66787 l 3.66354,20.82063 -3.67894,20.14069 c -3.62086,19.82273 -3.83639,20.45351 -13.65211,39.95714 l -9.97316,19.81645 -16.03628,15.88834 -16.03626,15.88832 -18.125,8.70548 c -17.60283,8.45467 -18.64106,8.7802 -36.03769,11.29916 -21.19314,3.0687 -24.6258,3.06032 -45.61636,-0.11125 z"
       id="path4161"
       inkscape:connector-curvature="0" />
    <path
       style="fill:#6e6e6e"
       d="m 495.44114,601.39315 c -16.40111,-2.37426 -17.11123,-2.61045 -35.625,-11.84915 l -18.8903,-9.42658 -15.625,-16.04866 c -15.19758,-15.60962 -15.87076,-16.53786 -24.609,-33.93248 -8.58328,-17.08614 -9.1269,-18.69708 -12.1875,-36.11595 -1.76193,-10.02767 -3.20383,-19.87142 -3.20423,-21.875 l -7.1e-4,-3.64289 43.25333,0.35965 c 28.52808,0.2372 43.78465,-0.0813 44.81397,-0.93558 1.07005,-0.88806 1.77801,-7.55912 2.25214,-21.22193 0.38032,-10.9597 1.06006,-20.52308 1.51052,-21.25194 0.51933,-0.84029 7.82568,-1.3252 19.96719,-1.3252 13.80409,0 19.5046,-0.43607 20.42528,-1.5625 1.51952,-1.8591 2.35938,-67.18609 0.98431,-76.5625 -0.50413,-3.4375 -1.73075,-6.88764 -2.72584,-7.66698 -3.47377,-2.7206 3.43541,-2.9115 23.28844,-0.64344 l 19.36512,2.21231 18.12099,8.54302 18.12099,8.54303 16.03626,15.75602 16.03628,15.75604 9.87358,19.6176 c 9.81079,19.49281 9.89754,19.75081 13.63754,40.56264 l 3.76394,20.94505 -3.79253,20.50273 c -3.69351,19.96749 -4.03951,20.99708 -13.25315,39.43737 -9.37257,18.75836 -9.60766,19.08458 -25.25627,35.04603 l -15.79565,16.11143 -18.90304,9.13105 c -18.79169,9.07726 -19.01227,9.14619 -37.44579,11.70107 -21.67271,3.00384 -22.26618,3.00163 -44.13587,-0.16426 z"
       id="path4159"
       inkscape:connector-curvature="0" />
    <path
       style="fill:#5f5f5f"
       d="m 495.30084,601.10703 c -17.85856,-2.68732 -18.38225,-2.85783 -35.625,-11.59935 -17.49363,-8.86872 -17.50591,-8.87803 -33.75,-25.57608 -15.83261,-16.27508 -16.4707,-17.14665 -24.84266,-33.93232 -4.72597,-9.4755 -8.24929,-17.57157 -7.82962,-17.99123 0.41968,-0.41967 9.06763,-0.15339 19.21767,0.59176 10.15003,0.74514 28.29836,1.25307 40.32961,1.12872 l 21.875,-0.22609 v -21.25 -21.25 l 21.15955,-0.34373 c 13.01539,-0.21143 21.79576,-0.87173 22.8125,-1.71556 1.24969,-1.03715 1.65295,-6.45776 1.65295,-22.21876 0,-13.98794 0.47077,-21.31773 1.43085,-22.2778 1.01635,-1.01635 6.93645,-1.21585 20.43605,-0.68864 13.63482,0.53249 19.25501,0.33801 19.88925,-0.68821 0.48622,-0.78673 -0.54146,-9.17904 -2.28376,-18.64958 -1.7423,-9.47052 -3.13717,-19.17632 -3.0997,-21.56843 0.0375,-2.39212 -1.93827,-9.6147 -4.3905,-16.05022 -2.45225,-6.4355 -4.11468,-12.25745 -3.69429,-12.93765 0.45845,-0.7418 3.45517,-0.90052 7.48821,-0.39662 4.02233,0.50255 6.72389,0.36071 6.72389,-0.35304 0,-0.65621 -3.77931,-3.64981 -8.39846,-6.65244 l -8.39845,-5.45932 5.58595,-0.36789 c 4.70556,-0.30991 8.54115,1.00151 24.33596,8.32065 l 18.75,8.68855 16.67231,16.67934 c 16.63098,16.63799 16.6949,16.7243 25.77651,34.80435 8.96433,17.84656 9.1623,18.45145 12.88709,39.375 l 3.7829,21.25 -4.01497,21.25 c -3.89358,20.60747 -4.28594,21.78685 -12.97652,39.00514 -8.69117,17.21946 -9.44191,18.25095 -24.88313,34.1885 l -15.9216,16.43336 -19.02468,9.12152 -19.02467,9.12153 -19.16932,2.62747 c -22.4241,3.07361 -20.31535,3.09267 -43.47892,-0.39293 z"
       id="path4157"
       inkscape:connector-curvature="0" />
    <path
       style="fill:#4c4c4c"
       d="m 498.14705,600.82759 -20.27879,-2.83011 -17.8151,-9.03953 c -17.21117,-8.7331 -18.29286,-9.51996 -31.90871,-23.2118 -17.11389,-17.20939 -18.21447,-20.58309 -5.18827,-15.90396 7.3753,2.64927 57.567,3.97487 56.78422,1.49972 -0.27647,-0.87421 -1.73104,-8.48921 -3.23236,-16.92223 -3.6849,-20.69828 -4.85835,-19.63518 20.51869,-18.58903 14.04477,0.579 20.36552,0.40459 21.57016,-0.59517 1.307,-1.08472 1.70395,-6.01386 1.70395,-21.15886 0,-10.85959 0.34142,-20.63447 0.75874,-21.72194 0.6517,-1.6983 3.83137,-1.97724 22.53922,-1.97724 18.20141,0 21.89866,-0.30792 22.49956,-1.87385 0.39549,-1.03062 0.15029,-10.96833 -0.54487,-22.0838 -0.69518,-11.11546 -0.97623,-20.95972 -0.62456,-21.87614 0.48868,-1.27351 4.58502,-1.66621 17.38065,-1.66621 12.84752,0 16.74126,-0.37551 16.74126,-1.61455 0,-0.888 -2.53161,-9.16254 -5.62581,-18.38786 -3.09419,-9.22531 -5.34524,-17.65727 -5.00234,-18.73767 0.34847,-1.09794 -2.75309,-7.1845 -7.032,-13.79965 -4.2105,-6.50939 -7.87265,-12.39968 -8.1381,-13.08952 -0.47806,-1.24234 17.49677,-1.8012 18.78682,-0.58411 0.343,0.3236 8.59895,8.43722 18.34658,18.03027 l 17.72292,17.4419 8.97267,18.1831 c 8.80815,17.84974 9.03755,18.56379 12.51298,38.94853 l 3.54034,20.76544 -3.82796,20.78414 -3.82796,20.78415 -10.03185,19.07542 c -9.80262,18.6395 -10.38355,19.42538 -25.42208,34.39036 -15.26832,15.19365 -15.53282,15.38459 -33.39599,24.10837 -17.62978,8.60983 -18.37323,8.84504 -35.60448,11.26426 -9.67932,1.35893 -18.72374,2.63884 -20.09874,2.84424 -1.375,0.20539 -11.62545,-0.90011 -22.77879,-2.45667 z m -87.90351,-58.05721 c -0.76739,-1.43388 -1.1598,-2.8425 -0.87203,-3.13028 0.28778,-0.28777 1.16504,0.8854 1.94948,2.60705 1.72259,3.78068 0.88386,4.18798 -1.07745,0.52323 z m -4.3177,-8.64294 c -1.06656,-2.0625 -1.65795,-3.75 -1.3142,-3.75 0.34375,0 1.49764,1.6875 2.5642,3.75 1.06656,2.0625 1.65795,3.75 1.3142,3.75 -0.34375,0 -1.49764,-1.6875 -2.5642,-3.75 z"
       id="path4155"
       inkscape:connector-curvature="0" />
    <path
       style="fill:#3e3e3e"
       d="m 496.55084,600.22064 c -16.5144,-2.29494 -17.25704,-2.53495 -34.75358,-11.2318 -16.96933,-8.43479 -18.54272,-9.54209 -30.9375,-21.77273 -7.18241,-7.08729 -13.05892,-13.40593 -13.05892,-14.04142 0,-0.65467 3.65674,-0.42402 8.4375,0.53221 8.89544,1.77925 90.93257,2.71238 92.60119,1.05329 0.45997,-0.45734 1.11756,-9.08368 1.46131,-19.16964 l 0.625,-18.33811 20.51809,-0.89309 c 11.28495,-0.4912 21.01643,-1.39144 21.62552,-2.00052 0.60909,-0.60909 1.70846,-10.3322 2.44305,-21.60691 0.73459,-11.27472 1.9001,-21.20261 2.59003,-22.06198 0.89867,-1.11939 6.35117,-1.5625 19.22636,-1.5625 h 17.97195 v -4.427 c 0,-2.43486 -0.89393,-11.75916 -1.9865,-20.72067 -1.09258,-8.96153 -1.64435,-17.65687 -1.22619,-19.32301 0.734,-2.92446 1.14894,-3.02932 11.9865,-3.02932 6.1744,0 11.22619,-0.29918 11.22619,-0.66484 0,-0.36566 -3.12931,-7.53753 -6.95404,-15.9375 -4.60212,-10.10732 -6.7898,-16.43075 -6.46844,-18.69686 0.40165,-2.83231 -1.29106,-5.42514 -9.79268,-15 -5.65305,-6.36669 -10.10714,-11.75779 -9.89797,-11.98023 0.20918,-0.22243 5.07333,4.49564 10.80923,10.48462 5.73589,5.98897 13.33771,13.0466 16.89294,15.68362 5.80158,4.30321 7.41983,6.6875 15.79048,23.26538 9.24258,18.30471 9.36034,18.6619 13.09537,39.72081 l 3.76892,21.25 -3.9771,21.25 c -3.94347,21.07037 -4.05517,21.39792 -13.21464,38.75 -8.40928,15.93089 -10.55606,18.90559 -23.94263,33.1763 l -14.70509,15.6763 -18.51468,9.17194 c -18.42347,9.12676 -18.61012,9.18645 -37.88967,12.11621 -22.42043,3.40706 -21.6316,3.40116 -43.75,0.32745 z"
       id="path4153"
       inkscape:connector-curvature="0" />
    <path
       style="fill:#353535"
       d="m 495.02006,598.99978 c -14.59142,-2.12795 -17.04458,-2.89077 -29.6875,-9.23143 -7.57995,-3.80149 -13.78172,-7.11935 -13.78172,-7.37304 0,-0.25367 8.71875,-0.16822 19.375,0.18992 11.94279,0.40137 19.375,0.19276 19.375,-0.54383 0,-0.65725 -1.68453,-6.17849 -3.74339,-12.26941 -2.05887,-6.09094 -3.41531,-11.39959 -3.01432,-11.79699 0.401,-0.39741 8.41365,-0.85036 17.8059,-1.00656 33.87241,-0.56333 52.47125,-1.67893 53.65291,-3.2182 0.63239,-0.82379 2.45481,-9.22664 4.04984,-18.67301 1.99092,-11.79102 3.57032,-17.7818 5.0382,-19.11022 1.60468,-1.45221 6.36286,-2.12596 19.07068,-2.70037 l 16.93252,-0.76536 0.67348,-3.87443 c 0.37042,-2.13092 1.29638,-9.78066 2.0577,-16.99941 0.76133,-7.21875 2.25795,-16.04146 3.32584,-19.60601 1.76201,-5.88154 1.75471,-8.03203 -0.0789,-23.24903 -1.11128,-9.2224 -2.02049,-18.25906 -2.02049,-20.08147 v -3.31349 h 11.91422 c 8.83184,0 12.08129,-0.43531 12.55992,-1.6826 0.35512,-0.92544 -2.75629,-9.20129 -6.91423,-18.39077 -4.15795,-9.18949 -7.55991,-17.15108 -7.55991,-17.6924 0,-1.71357 5.58019,-1.06375 8.5145,0.99151 1.55141,1.08666 7.05952,10.43914 12.24022,20.78329 9.24427,18.4577 9.48829,19.19051 13.11947,39.39671 l 3.69998,20.58917 -3.71102,20.36738 c -3.59333,19.72137 -3.9959,20.93601 -12.69274,38.29657 -8.53169,17.0309 -9.74112,18.73917 -24.13856,34.09444 l -15.15685,16.1652 -19.14021,9.20944 c -18.83395,9.06208 -19.42275,9.24873 -36.79888,11.66575 -20.79944,2.89318 -24.03767,2.88085 -44.96669,-0.17135 z"
       id="path4151"
       inkscape:connector-curvature="0" />
    <path
       style="fill:#2e2e2e"
       d="m 496.55084,598.58768 c -16.15501,-2.45463 -19.31085,-3.35615 -29.03546,-8.29459 l -10.91048,-5.54065 h 30.91048 30.91046 l 0.625,-13.125 0.625,-13.125 9.375,-0.77413 c 5.15625,-0.42576 13.41992,-0.84763 18.36372,-0.9375 4.9438,-0.0899 9.31928,-0.69819 9.72327,-1.35186 0.40398,-0.65367 2.16263,-9.2318 3.9081,-19.0625 1.74547,-9.83071 3.66101,-18.37127 4.25676,-18.97903 0.59576,-0.60777 8.98222,-1.38909 18.6366,-1.73629 15.38282,-0.5532 17.64045,-0.90553 18.25735,-2.84924 0.38717,-1.21987 1.77929,-10.99507 3.09356,-21.72266 1.31429,-10.72758 2.73129,-20.05754 3.1489,-20.73324 0.4176,-0.6757 6.31789,-1.22855 13.11174,-1.22855 6.79385,0 12.61719,-0.42834 12.94075,-0.95188 0.32356,-0.52352 -0.48725,-9.66415 -1.8018,-20.3125 -1.31455,-10.64833 -2.09036,-20.78694 -1.72404,-22.53025 0.46471,-2.21148 -1.56785,-8.06831 -6.72394,-19.375 -4.06448,-8.91295 -7.20265,-16.41355 -6.9737,-16.668 0.22897,-0.25443 1.81932,-0.1105 3.5341,0.3199 2.5214,0.63284 5.0249,4.51398 13.08742,20.28927 9.65728,18.89566 10.07048,20.06746 13.1904,37.40649 1.77145,9.84487 3.22177,19.76663 3.22296,22.04837 10e-4,2.28172 -1.48016,12.30485 -3.29188,22.2736 -3.11771,17.15482 -3.78103,19.09934 -12.3924,36.32775 -8.81418,17.63418 -9.58008,18.70504 -24.52062,34.28382 l -15.42225,16.08108 -18.125,8.73445 c -17.82339,8.5891 -18.44741,8.78244 -37.5,11.61846 -22.72681,3.38293 -19.63298,3.38914 -42.5,-0.0854 z"
       id="path4149"
       inkscape:connector-curvature="0" />
  </g>
</svg>
